# xmcd
#
# Track frame offsets:
#	150
#	15993
#	34853
#	50300
#	67797
#	86153
#	103802
#	120476
#	137831
#	152984
#	168227
#	186681
#	211110
#	227454
#
# Disc length: 3252
#
# Revision: 1
# Processed by: cddbd v1.5.1PL0 Copyright (c) Steve Scherf et al.
# Submitted via: CDex 1.51
# Normalized: r0:TRMNUM
#
DISCID=b40cb20e
DTITLE=Manfred Krug and Fanny Krug - Sweet Nothings
DYEAR=1900
DGENRE=Jazz
TTITLE0=Nice work if you can get it
TTITLE1=Love for sale
TTITLE2=Where or when
TTITLE3=There will never be another you
TTITLE4=Just friends
TTITLE5=Dancing in the dark
TTITLE6=Easy to love
TTITLE7=Night and day
TTITLE8=People
TTITLE9=Someone to watch over me
TTITLE10=On a clear day
TTITLE11=A foggy day
TTITLE12=Like someone in love
TTITLE13=Lush life
EXTD=
EXTT0=
EXTT1=
EXTT2=
EXTT3=
EXTT4=
EXTT5=
EXTT6=
EXTT7=
EXTT8=
EXTT9=
EXTT10=
EXTT11=
EXTT12=
EXTT13=
PLAYORDER=
